<svg width="23" height="24" viewBox="0 0 23 24" fill="none" xmlns="http://www.w3.org/2000/svg">
<path d="M23 12C23 18.3513 17.8513 23.5 11.5 23.5C5.14871 23.5 0 18.3513 0 12C0 5.64871 5.14871 0.5 11.5 0.5C17.8513 0.5 23 5.64871 23 12ZM10.1698 18.0892L18.7021 9.5569C18.9918 9.26717 18.9918 8.79739 18.7021 8.50766L17.6528 7.45843C17.3631 7.16866 16.8933 7.16866 16.6035 7.45843L9.64516 14.4168L6.39646 11.1681C6.10673 10.8783 5.63695 10.8783 5.34718 11.1681L4.29794 12.2173C4.00821 12.507 4.00821 12.9768 4.29794 13.2665L9.12052 18.0891C9.41029 18.3789 9.88003 18.3789 10.1698 18.0892Z" fill="#F07D49"/>
</svg>
