<svg width="37" height="37" viewBox="0 0 37 37" fill="none" xmlns="http://www.w3.org/2000/svg">
<path d="M25.0368 15.1783C25.1217 15.0934 25.1891 14.9925 25.235 14.8816C25.281 14.7707 25.3046 14.6517 25.3046 14.5316C25.3046 14.4116 25.281 14.2926 25.235 14.1817C25.1891 14.0708 25.1217 13.9699 25.0368 13.885C24.9519 13.8001 24.8511 13.7328 24.7401 13.6868C24.6292 13.6408 24.5102 13.6172 24.3902 13.6172C24.2701 13.6172 24.1512 13.6408 24.0402 13.6868C23.9293 13.7328 23.8285 13.8001 23.7435 13.885L17.2591 20.3695L14.108 17.2183C13.9365 17.0468 13.7039 16.9505 13.4613 16.9505C13.2188 16.9505 12.9862 17.0468 12.8147 17.2183C12.6432 17.3898 12.5469 17.6224 12.5469 17.8649C12.5469 18.1075 12.6432 18.3401 12.8147 18.5116L16.6034 22.3002C16.7773 22.467 17.009 22.5601 17.25 22.5601C17.491 22.5601 17.7227 22.467 17.8966 22.3002L25.0368 15.1783Z" fill="currentColor"/>
<path d="M18.0963 36.189C14.5175 36.1893 11.0189 35.1284 8.04306 33.1404C5.0672 31.1524 2.7477 28.3265 1.37789 25.0202C0.00808376 21.7139 -0.350508 18.0757 0.347467 14.5656C1.04544 11.0554 2.76863 7.83115 5.29912 5.30041C7.8296 2.76966 11.0537 1.04615 14.5638 0.347822C18.0738 -0.350506 21.7121 0.0077193 25.0185 1.37719C28.325 2.74667 31.1511 5.06589 33.1394 8.04155C35.1277 11.0172 36.189 14.5157 36.189 18.0945C36.1837 22.8915 34.2759 27.4906 30.884 30.8827C27.4922 34.2749 22.8933 36.1832 18.0963 36.189ZM18.0963 1.8233C14.8777 1.82294 11.7312 2.77708 9.05483 4.56504C6.37846 6.353 4.29243 8.89448 3.06054 11.8681C1.82865 14.8416 1.50623 18.1138 2.13407 21.2706C2.76191 24.4274 4.3118 27.3272 6.58774 29.6031C8.86367 31.879 11.7634 33.4289 14.9202 34.0567C18.0771 34.6846 21.3492 34.3622 24.3228 33.1303C27.2963 31.8984 29.8378 29.8124 31.6258 27.136C33.4137 24.4596 34.3679 21.3132 34.3675 18.0945C34.3622 13.7807 32.6462 9.64517 29.5959 6.59488C26.5456 3.54459 22.4101 1.8286 18.0963 1.8233Z" fill="currentColor"/>
</svg>
